<?xml version="1.0" standalone="no"?><!DOCTYPE svg PUBLIC "-//W3C//DTD SVG 1.1//EN" "http://www.w3.org/Graphics/SVG/1.1/DTD/svg11.dtd"><svg t="1785482337590" class="icon" viewBox="0 0 1042 1024" version="1.1" xmlns="http://www.w3.org/2000/svg" p-id="2624" xmlns:xlink="http://www.w3.org/1999/xlink" width="260.5" height="256"><path d="M203.861806 1024a65.152383 65.152383 0 0 1-65.152383-65.152383 65.152383 65.152383 0 0 1 65.152383-65.152383h634.453903a65.152383 65.152383 0 0 1 65.152383 65.152383 65.152383 65.152383 0 0 1-65.152383 65.152383z m-116.818223-244.191131A87.108736 87.108736 0 0 1 0 693.286505V86.587517A87.369345 87.369345 0 0 1 87.043583 0H955.133931A87.434498 87.434498 0 0 1 1042.438124 86.587517v606.698988a87.173888 87.173888 0 0 1-87.304193 86.522364z m447.140803-248.491188l23.78062-23.780619-19.545715-19.545715a142.292804 142.292804 0 0 0 14.398677-82.222307 118.186422 118.186422 0 0 0-23.389706-92.711841 84.698098 84.698098 0 0 0-62.481135-25.279124 84.698098 84.698098 0 0 0-62.741744 25.279124 115.710632 115.710632 0 0 0-23.063944 91.213336v3.974295a114.342432 114.342432 0 0 0 23.063944 90.170898 84.698098 84.698098 0 0 0 62.741744 25.670039 83.13444 83.13444 0 0 0 46.974868-12.639562z m232.984921-201.646624h60.722021V521.219062h45.020296V329.671057h60.591716v-40.394478h-166.334033z m-186.010053 0h60.591716V521.219062h45.606668V329.671057h60.591716v-40.394478H581.354711zM289.732646 521.219062h45.020297V289.211427h-44.433925l-60.591716 125.548642-60.591716-125.548642h-44.433925V521.219062h45.150601V386.288477l44.694534 88.086022h30.686773l44.433925-87.695107z m147.895909-50.884011c-9.056181-9.707705-11.20621-21.239677-11.20621-65.152383s2.150029-55.184068 11.20621-65.152382a40.133868 40.133868 0 0 1 29.123115-12.248648 39.09143 39.09143 0 0 1 28.862506 12.248648c8.665267 9.707705 11.597124 19.545715 11.597124 65.152382a152.065661 152.065661 0 0 1-4.300057 46.909716l-17.330534-17.330534-23.78062 23.78062 20.132086 19.545715a27.494306 27.494306 0 0 1-15.115352 4.300057 36.745944 36.745944 0 0 1-29.188268-12.053191z" fill="#AFAFAF" p-id="2625"></path></svg>