<?xml version="1.0" encoding="UTF-8"?>
<!-- 方向：向右（十字键 +X）。
     2026-10-08：与「向上 / 向下 / 向左」成套 —— 直接由 向上.svg 的同一形状
     顺时针旋转 90° 得到（原来是从 Iconfont 另下的一个三角，墨量差 7%、还偏了 5px，
     四个方向放一起看得出不是一套）。旋转以 viewBox 中心为轴，形状与居中都不用手调。
     单色（#515151，与同目录 Iconfont 那批一致），由 IconImage 的 ColorOverlay 跟随主题
     染色 —— 改色只改这里，不用改页面。 -->
<svg viewBox="0 0 1024 1024" width="256" height="256" xmlns="http://www.w3.org/2000/svg">
  <g transform="rotate(90 512 512)">
    <path d="M896 768l-80.896 0-131.072 0-155.648 0-159.744 0-141.312 0-100.352 0q-24.576 0-39.936-11.264t-20.992-28.672-0.512-38.4 22.528-41.472q37.888-40.96 79.872-86.016t86.016-91.136l86.016-92.16q44.032-46.08 83.968-89.088 18.432-19.456 44.032-28.672t52.736-8.704 53.248 11.776 45.568 31.744q70.656 73.728 147.456 159.744t160.768 184.32q19.456 23.552 26.624 46.592t2.56 40.96-20.48 29.184-40.448 11.264z" fill="#515151"/>
  </g>
</svg>
